# xmcd CD database file
#
# Track frame offsets:
#	150
#	28011
#	68941
#	94878
#	138174
#	220594
#	228434
#
# Disc length: 3562 seconds
#
# Revision: 0
# Processed by: cddbd v1.5.2PL0 Copyright (c) Steve Scherf et al.
# Submitted via: CDex 1.70beta2
#
DISCID=5b0de807
DTITLE=Ircha Clarinet Quartet - Zikaron - Lefanay
DYEAR=2012
DGENRE=Jazz
TTITLE0=Night Flight
TTITLE1=Red Shoes
TTITLE2=Builderblock.pampim
TTITLE3=Upper Trias Caspian Fuge
TTITLE4=Inner Uprising /Akhtamar
TTITLE5=In side your bely.
TTITLE6=Climbing and Sliding/Nigun number 115
EXTD=YEAR: 2012
EXTT0=
EXTT1=
EXTT2=
EXTT3=
EXTT4=
EXTT5=
EXTT6=
PLAYORDER=
